<?xml version="1.0" encoding="UTF-8" standalone="no"?>
<!DOCTYPE svg PUBLIC "-//W3C//DTD SVG 1.1//EN"
 "http://www.w3.org/Graphics/SVG/1.1/DTD/svg11.dtd">
<!-- Generated by graphviz version 2.40.1 (20161225.0304)
 -->
<!-- Title: G Pages: 1 -->
<svg width="452pt" height="643pt"
 viewBox="0.00 0.00 451.85 643.00" xmlns="http://www.w3.org/2000/svg" xmlns:xlink="http://www.w3.org/1999/xlink">
<g id="graph0" class="graph" transform="scale(1 1) rotate(0) translate(4 639)">
<title>G</title>
<polygon fill="#ffffff" stroke="transparent" points="-4,4 -4,-639 447.8462,-639 447.8462,4 -4,4"/>
<g id="clust1" class="cluster">
<title>cluster_Global</title>
<path fill="none" stroke="#c0c0c0" d="M20,-8C20,-8 423.8462,-8 423.8462,-8 429.8462,-8 435.8462,-14 435.8462,-20 435.8462,-20 435.8462,-615 435.8462,-615 435.8462,-621 429.8462,-627 423.8462,-627 423.8462,-627 20,-627 20,-627 14,-627 8,-621 8,-615 8,-615 8,-20 8,-20 8,-14 14,-8 20,-8"/>
<text text-anchor="middle" x="221.9231" y="-614.2" font-family="Times,serif" font-size="11.00" fill="#c0c0c0">Global</text>
</g>
<g id="clust2" class="cluster">
<title>cluster_\Screenplay</title>
<path fill="none" stroke="#c0c0c0" d="M28,-16C28,-16 415.8462,-16 415.8462,-16 421.8462,-16 427.8462,-22 427.8462,-28 427.8462,-28 427.8462,-588 427.8462,-588 427.8462,-594 421.8462,-600 415.8462,-600 415.8462,-600 28,-600 28,-600 22,-600 16,-594 16,-588 16,-588 16,-28 16,-28 16,-22 22,-16 28,-16"/>
<text text-anchor="middle" x="221.9231" y="-587.2" font-family="Times,serif" font-size="11.00" fill="#c0c0c0">Screenplay</text>
</g>
<g id="clust3" class="cluster">
<title>cluster_\Screenplay\Filters</title>
<path fill="none" stroke="#c0c0c0" d="M234.8193,-70C234.8193,-70 407.8462,-70 407.8462,-70 413.8462,-70 419.8462,-76 419.8462,-82 419.8462,-82 419.8462,-561 419.8462,-561 419.8462,-567 413.8462,-573 407.8462,-573 407.8462,-573 234.8193,-573 234.8193,-573 228.8193,-573 222.8193,-567 222.8193,-561 222.8193,-561 222.8193,-82 222.8193,-82 222.8193,-76 228.8193,-70 234.8193,-70"/>
<text text-anchor="middle" x="321.3328" y="-560.2" font-family="Times,serif" font-size="11.00" fill="#c0c0c0">Filters</text>
</g>
<!-- \\Screenplay\\Filters\\Adobe -->
<g id="node1" class="node">
<title>\\Screenplay\\Filters\\Adobe</title>
<polygon fill="none" stroke="#000000" points="348.3328,-546 294.3328,-546 294.3328,-510 348.3328,-510 348.3328,-546"/>
<text text-anchor="middle" x="321.3328" y="-524.7" font-family="Courier,monospace" font-size="11.00" fill="#000000">Adobe</text>
</g>
<!-- \\Screenplay\\ExtractorInterface -->
<g id="node11" class="node">
<title>\\Screenplay\\ExtractorInterface</title>
<polygon fill="none" stroke="#000000" points="158.7291,-411 24.0902,-411 24.0902,-375 158.7291,-375 158.7291,-411"/>
<text text-anchor="middle" x="91.4097" y="-389.7" font-family="Courier,monospace" font-size="11.00" fill="#000000">ExtractorInterface</text>
</g>
<!-- \\Screenplay\\Filters\\Adobe&#45;&gt;\\Screenplay\\ExtractorInterface -->
<g id="edge1" class="edge">
<title>\\Screenplay\\Filters\\Adobe&#45;&gt;\\Screenplay\\ExtractorInterface</title>
<path fill="none" stroke="#000000" stroke-dasharray="1,5" d="M294.2856,-523.7597C273.8326,-519.8159 245.4971,-512.7405 222.8193,-501 180.9913,-479.3452 140.2734,-442.75 115.5193,-418.2378"/>
<polygon fill="none" stroke="#000000" points="117.9004,-415.6686 108.366,-411.0483 112.9382,-420.6059 117.9004,-415.6686"/>
</g>
<!-- \\Screenplay\\Filters\\Celtx -->
<g id="node2" class="node">
<title>\\Screenplay\\Filters\\Celtx</title>
<polygon fill="none" stroke="#000000" points="348.3328,-492 294.3328,-492 294.3328,-456 348.3328,-456 348.3328,-492"/>
<text text-anchor="middle" x="321.3328" y="-470.7" font-family="Courier,monospace" font-size="11.00" fill="#000000">Celtx</text>
</g>
<!-- \\Screenplay\\Filters\\Celtx&#45;&gt;\\Screenplay\\ExtractorInterface -->
<g id="edge2" class="edge">
<title>\\Screenplay\\Filters\\Celtx&#45;&gt;\\Screenplay\\ExtractorInterface</title>
<path fill="none" stroke="#000000" stroke-dasharray="1,5" d="M294.3039,-467.542C274.3567,-462.5472 246.6531,-455.129 222.8193,-447 195.4093,-437.6512 165.4992,-425.5187 141.1484,-415.1225"/>
<polygon fill="none" stroke="#000000" points="142.333,-411.822 131.7638,-411.0848 139.5664,-418.2521 142.333,-411.822"/>
</g>
<!-- \\Screenplay\\Filters\\FinalDraft -->
<g id="node3" class="node">
<title>\\Screenplay\\Filters\\FinalDraft</title>
<polygon fill="none" stroke="#000000" points="362.3435,-438 280.322,-438 280.322,-402 362.3435,-402 362.3435,-438"/>
<text text-anchor="middle" x="321.3328" y="-416.7" font-family="Courier,monospace" font-size="11.00" fill="#000000">FinalDraft</text>
</g>
<!-- \\Screenplay\\Filters\\FinalDraft&#45;&gt;\\Screenplay\\ExtractorInterface -->
<g id="edge3" class="edge">
<title>\\Screenplay\\Filters\\FinalDraft&#45;&gt;\\Screenplay\\ExtractorInterface</title>
<path fill="none" stroke="#000000" stroke-dasharray="1,5" d="M280.2271,-415.1729C249.4115,-411.5542 206.318,-406.4938 169.0792,-402.1208"/>
<polygon fill="none" stroke="#000000" points="169.0862,-398.5976 158.7463,-400.9074 168.2698,-405.5499 169.0862,-398.5976"/>
</g>
<!-- \\Screenplay\\Filters\\Fountain -->
<g id="node4" class="node">
<title>\\Screenplay\\Filters\\Fountain</title>
<polygon fill="none" stroke="#000000" points="355.6416,-384 287.0239,-384 287.0239,-348 355.6416,-348 355.6416,-384"/>
<text text-anchor="middle" x="321.3328" y="-362.7" font-family="Courier,monospace" font-size="11.00" fill="#000000">Fountain</text>
</g>
<!-- \\Screenplay\\Filters\\Fountain&#45;&gt;\\Screenplay\\ExtractorInterface -->
<g id="edge4" class="edge">
<title>\\Screenplay\\Filters\\Fountain&#45;&gt;\\Screenplay\\ExtractorInterface</title>
<path fill="none" stroke="#000000" stroke-dasharray="1,5" d="M286.911,-370.0422C255.8447,-373.6903 209.0094,-379.1902 168.9682,-383.8923"/>
<polygon fill="none" stroke="#000000" points="168.4719,-380.4264 158.9484,-385.0689 169.2883,-387.3786 168.4719,-380.4264"/>
</g>
<!-- \\Screenplay\\Filters\\FountainParser -->
<g id="node5" class="node">
<title>\\Screenplay\\Filters\\FountainParser</title>
<polygon fill="none" stroke="#000000" points="375.7486,-330 266.9169,-330 266.9169,-294 375.7486,-294 375.7486,-330"/>
<text text-anchor="middle" x="321.3328" y="-308.7" font-family="Courier,monospace" font-size="11.00" fill="#000000">FountainParser</text>
</g>
<!-- \\Screenplay\\Filters\\FountainElementCollection -->
<g id="node6" class="node">
<title>\\Screenplay\\Filters\\FountainElementCollection</title>
<polygon fill="none" stroke="#000000" points="411.8596,-276 230.8059,-276 230.8059,-240 411.8596,-240 411.8596,-276"/>
<text text-anchor="middle" x="321.3328" y="-254.7" font-family="Courier,monospace" font-size="11.00" fill="#000000">FountainElementCollection</text>
</g>
<!-- \\Screenplay\\Filters\\FountainElement -->
<g id="node7" class="node">
<title>\\Screenplay\\Filters\\FountainElement</title>
<polygon fill="none" stroke="#000000" points="378.8489,-222 263.8166,-222 263.8166,-186 378.8489,-186 378.8489,-222"/>
<text text-anchor="middle" x="321.3328" y="-200.7" font-family="Courier,monospace" font-size="11.00" fill="#000000">FountainElement</text>
</g>
<!-- \\Screenplay\\Filters\\OSF -->
<g id="node8" class="node">
<title>\\Screenplay\\Filters\\OSF</title>
<polygon fill="none" stroke="#000000" points="348.3328,-168 294.3328,-168 294.3328,-132 348.3328,-132 348.3328,-168"/>
<text text-anchor="middle" x="321.3328" y="-146.7" font-family="Courier,monospace" font-size="11.00" fill="#000000">OSF</text>
</g>
<!-- \\Screenplay\\Filters\\OSF&#45;&gt;\\Screenplay\\ExtractorInterface -->
<g id="edge5" class="edge">
<title>\\Screenplay\\Filters\\OSF&#45;&gt;\\Screenplay\\ExtractorInterface</title>
<path fill="none" stroke="#000000" stroke-dasharray="1,5" d="M294.2849,-151.9826C273.0295,-154.7359 243.6371,-161.3094 222.8193,-177 157.3165,-226.3702 117.4226,-318.7555 100.6529,-365.0523"/>
<polygon fill="none" stroke="#000000" points="97.2662,-364.1324 97.2437,-374.7273 103.8683,-366.4589 97.2662,-364.1324"/>
</g>
<!-- \\Screenplay\\Filters\\RTF -->
<g id="node9" class="node">
<title>\\Screenplay\\Filters\\RTF</title>
<polygon fill="none" stroke="#000000" points="348.3328,-114 294.3328,-114 294.3328,-78 348.3328,-78 348.3328,-114"/>
<text text-anchor="middle" x="321.3328" y="-92.7" font-family="Courier,monospace" font-size="11.00" fill="#000000">RTF</text>
</g>
<!-- \\Screenplay\\Filters\\RTF&#45;&gt;\\Screenplay\\ExtractorInterface -->
<g id="edge6" class="edge">
<title>\\Screenplay\\Filters\\RTF&#45;&gt;\\Screenplay\\ExtractorInterface</title>
<path fill="none" stroke="#000000" stroke-dasharray="1,5" d="M294.3107,-97.4126C272.7868,-99.8341 243.0167,-106.2394 222.8193,-123 144.9658,-187.6061 109.6325,-309.4175 97.0925,-364.5786"/>
<polygon fill="none" stroke="#000000" points="93.5995,-364.1686 94.8825,-374.6855 100.4379,-365.6639 93.5995,-364.1686"/>
</g>
<!-- \\Screenplay\\Extractor -->
<g id="node10" class="node">
<title>\\Screenplay\\Extractor</title>
<polygon fill="none" stroke="#000000" points="359.2436,-60 283.422,-60 283.422,-24 359.2436,-24 359.2436,-60"/>
<text text-anchor="middle" x="321.3328" y="-38.7" font-family="Courier,monospace" font-size="11.00" fill="#000000">Extractor</text>
</g>
</g>
</svg>
